<svg  viewBox="0 0 68 10" fill="none" xmlns="http://www.w3.org/2000/svg">
<path d="M6.66 3.144C6.468 2.792 6.204 2.524 5.868 2.34C5.532 2.156 5.14 2.064 4.692 2.064C4.196 2.064 3.756 2.176 3.372 2.4C2.988 2.624 2.688 2.944 2.472 3.36C2.256 3.776 2.148 4.256 2.148 4.8C2.148 5.36 2.256 5.848 2.472 6.264C2.696 6.68 3.004 7 3.396 7.224C3.788 7.448 4.244 7.56 4.764 7.56C5.404 7.56 5.928 7.392 6.336 7.056C6.744 6.712 7.012 6.236 7.14 5.628H4.26V4.344H8.796V5.808C8.684 6.392 8.444 6.932 8.076 7.428C7.708 7.924 7.232 8.324 6.648 8.628C6.072 8.924 5.424 9.072 4.704 9.072C3.896 9.072 3.164 8.892 2.508 8.532C1.86 8.164 1.348 7.656 0.972 7.008C0.604 6.36 0.42 5.624 0.42 4.8C0.42 3.976 0.604 3.24 0.972 2.592C1.348 1.936 1.86 1.428 2.508 1.068C3.164 0.7 3.892 0.516 4.692 0.516C5.636 0.516 6.456 0.748 7.152 1.212C7.848 1.668 8.328 2.312 8.592 3.144H6.66ZM9.60694 5.652C9.60694 4.98 9.73894 4.384 10.0029 3.864C10.2749 3.344 10.6389 2.944 11.0949 2.664C11.5589 2.384 12.0749 2.244 12.6429 2.244C13.1389 2.244 13.5709 2.344 13.9389 2.544C14.3149 2.744 14.6149 2.996 14.8389 3.3V2.352H16.5309V9H14.8389V8.028C14.6229 8.34 14.3229 8.6 13.9389 8.808C13.5629 9.008 13.1269 9.108 12.6309 9.108C12.0709 9.108 11.5589 8.964 11.0949 8.676C10.6389 8.388 10.2749 7.984 10.0029 7.464C9.73894 6.936 9.60694 6.332 9.60694 5.652ZM14.8389 5.676C14.8389 5.268 14.7589 4.92 14.5989 4.632C14.4389 4.336 14.2229 4.112 13.9509 3.96C13.6789 3.8 13.3869 3.72 13.0749 3.72C12.7629 3.72 12.4749 3.796 12.2109 3.948C11.9469 4.1 11.7309 4.324 11.5629 4.62C11.4029 4.908 11.3229 5.252 11.3229 5.652C11.3229 6.052 11.4029 6.404 11.5629 6.708C11.7309 7.004 11.9469 7.232 12.2109 7.392C12.4829 7.552 12.7709 7.632 13.0749 7.632C13.3869 7.632 13.6789 7.556 13.9509 7.404C14.2229 7.244 14.4389 7.02 14.5989 6.732C14.7589 6.436 14.8389 6.084 14.8389 5.676ZM19.8518 3.324C20.0678 3.004 20.3638 2.744 20.7398 2.544C21.1238 2.344 21.5598 2.244 22.0478 2.244C22.6158 2.244 23.1278 2.384 23.5838 2.664C24.0478 2.944 24.4118 3.344 24.6758 3.864C24.9478 4.376 25.0838 4.972 25.0838 5.652C25.0838 6.332 24.9478 6.936 24.6758 7.464C24.4118 7.984 24.0478 8.388 23.5838 8.676C23.1278 8.964 22.6158 9.108 22.0478 9.108C21.5518 9.108 21.1158 9.012 20.7398 8.82C20.3718 8.62 20.0758 8.364 19.8518 8.052V9H18.1718V0.12H19.8518V3.324ZM23.3678 5.652C23.3678 5.252 23.2838 4.908 23.1158 4.62C22.9558 4.324 22.7398 4.1 22.4678 3.948C22.2038 3.796 21.9158 3.72 21.6038 3.72C21.2998 3.72 21.0118 3.8 20.7398 3.96C20.4758 4.112 20.2598 4.336 20.0918 4.632C19.9318 4.928 19.8518 5.276 19.8518 5.676C19.8518 6.076 19.9318 6.424 20.0918 6.72C20.2598 7.016 20.4758 7.244 20.7398 7.404C21.0118 7.556 21.2998 7.632 21.6038 7.632C21.9158 7.632 22.2038 7.552 22.4678 7.392C22.7398 7.232 22.9558 7.004 23.1158 6.708C23.2838 6.412 23.3678 6.06 23.3678 5.652ZM32.4846 5.532C32.4846 5.772 32.4686 5.988 32.4366 6.18H27.5766C27.6166 6.66 27.7846 7.036 28.0806 7.308C28.3766 7.58 28.7406 7.716 29.1726 7.716C29.7966 7.716 30.2406 7.448 30.5046 6.912H32.3166C32.1246 7.552 31.7566 8.08 31.2126 8.496C30.6686 8.904 30.0006 9.108 29.2086 9.108C28.5686 9.108 27.9926 8.968 27.4806 8.688C26.9766 8.4 26.5806 7.996 26.2926 7.476C26.0126 6.956 25.8726 6.356 25.8726 5.676C25.8726 4.988 26.0126 4.384 26.2926 3.864C26.5726 3.344 26.9646 2.944 27.4686 2.664C27.9726 2.384 28.5526 2.244 29.2086 2.244C29.8406 2.244 30.4046 2.38 30.9006 2.652C31.4046 2.924 31.7926 3.312 32.0646 3.816C32.3446 4.312 32.4846 4.884 32.4846 5.532ZM30.7446 5.052C30.7366 4.62 30.5806 4.276 30.2766 4.02C29.9726 3.756 29.6006 3.624 29.1606 3.624C28.7446 3.624 28.3926 3.752 28.1046 4.008C27.8246 4.256 27.6526 4.604 27.5886 5.052H30.7446Z" fill="white"/>
<path d="M36.6028 9.084C36.0188 9.084 35.4908 8.984 35.0188 8.784C34.5548 8.584 34.1868 8.296 33.9148 7.92C33.6428 7.544 33.5028 7.1 33.4948 6.588H35.2948C35.3188 6.932 35.4388 7.204 35.6548 7.404C35.8788 7.604 36.1828 7.704 36.5668 7.704C36.9588 7.704 37.2668 7.612 37.4908 7.428C37.7148 7.236 37.8268 6.988 37.8268 6.684C37.8268 6.436 37.7508 6.232 37.5988 6.072C37.4468 5.912 37.2548 5.788 37.0228 5.7C36.7988 5.604 36.4868 5.5 36.0868 5.388C35.5428 5.228 35.0988 5.072 34.7548 4.92C34.4188 4.76 34.1268 4.524 33.8788 4.212C33.6388 3.892 33.5188 3.468 33.5188 2.94C33.5188 2.444 33.6428 2.012 33.8908 1.644C34.1388 1.276 34.4868 0.996 34.9348 0.804C35.3828 0.604 35.8948 0.504 36.4708 0.504C37.3348 0.504 38.0348 0.716 38.5708 1.14C39.1148 1.556 39.4148 2.14 39.4708 2.892H37.6228C37.6068 2.604 37.4828 2.368 37.2508 2.184C37.0268 1.992 36.7268 1.896 36.3508 1.896C36.0228 1.896 35.7588 1.98 35.5588 2.148C35.3668 2.316 35.2708 2.56 35.2708 2.88C35.2708 3.104 35.3428 3.292 35.4868 3.444C35.6388 3.588 35.8228 3.708 36.0388 3.804C36.2628 3.892 36.5748 3.996 36.9748 4.116C37.5188 4.276 37.9628 4.436 38.3068 4.596C38.6508 4.756 38.9468 4.996 39.1948 5.316C39.4428 5.636 39.5668 6.056 39.5668 6.576C39.5668 7.024 39.4508 7.44 39.2188 7.824C38.9868 8.208 38.6468 8.516 38.1988 8.748C37.7508 8.972 37.2188 9.084 36.6028 9.084ZM42.9793 3.732V6.948C42.9793 7.172 43.0313 7.336 43.1353 7.44C43.2473 7.536 43.4313 7.584 43.6873 7.584H44.4673V9H43.4113C41.9953 9 41.2873 8.312 41.2873 6.936V3.732H40.4953V2.352H41.2873V0.707999H42.9793V2.352H44.4673V3.732H42.9793ZM45.2437 5.652C45.2437 4.98 45.3757 4.384 45.6397 3.864C45.9117 3.344 46.2757 2.944 46.7317 2.664C47.1957 2.384 47.7117 2.244 48.2797 2.244C48.7757 2.244 49.2077 2.344 49.5757 2.544C49.9517 2.744 50.2517 2.996 50.4757 3.3V2.352H52.1677V9H50.4757V8.028C50.2597 8.34 49.9597 8.6 49.5757 8.808C49.1997 9.008 48.7637 9.108 48.2677 9.108C47.7077 9.108 47.1957 8.964 46.7317 8.676C46.2757 8.388 45.9117 7.984 45.6397 7.464C45.3757 6.936 45.2437 6.332 45.2437 5.652ZM50.4757 5.676C50.4757 5.268 50.3957 4.92 50.2357 4.632C50.0757 4.336 49.8597 4.112 49.5877 3.96C49.3157 3.8 49.0237 3.72 48.7117 3.72C48.3997 3.72 48.1117 3.796 47.8477 3.948C47.5837 4.1 47.3677 4.324 47.1997 4.62C47.0397 4.908 46.9597 5.252 46.9597 5.652C46.9597 6.052 47.0397 6.404 47.1997 6.708C47.3677 7.004 47.5837 7.232 47.8477 7.392C48.1197 7.552 48.4077 7.632 48.7117 7.632C49.0237 7.632 49.3157 7.556 49.5877 7.404C49.8597 7.244 50.0757 7.02 50.2357 6.732C50.3957 6.436 50.4757 6.084 50.4757 5.676ZM53.3765 5.676C53.3765 4.988 53.5165 4.388 53.7965 3.876C54.0765 3.356 54.4645 2.956 54.9605 2.676C55.4565 2.388 56.0245 2.244 56.6645 2.244C57.4885 2.244 58.1685 2.452 58.7045 2.868C59.2485 3.276 59.6125 3.852 59.7965 4.596H57.9845C57.8885 4.308 57.7245 4.084 57.4925 3.924C57.2685 3.756 56.9885 3.672 56.6525 3.672C56.1725 3.672 55.7925 3.848 55.5125 4.2C55.2325 4.544 55.0925 5.036 55.0925 5.676C55.0925 6.308 55.2325 6.8 55.5125 7.152C55.7925 7.496 56.1725 7.668 56.6525 7.668C57.3325 7.668 57.7765 7.364 57.9845 6.756H59.7965C59.6125 7.476 59.2485 8.048 58.7045 8.472C58.1605 8.896 57.4805 9.108 56.6645 9.108C56.0245 9.108 55.4565 8.968 54.9605 8.688C54.4645 8.4 54.0765 8 53.7965 7.488C53.5165 6.968 53.3765 6.364 53.3765 5.676ZM64.9632 9L62.7072 6.168V9H61.0272V0.12H62.7072V5.172L64.9392 2.352H67.1232L64.1952 5.688L67.1472 9H64.9632Z" fill="#00ff99"/>
</svg>
